# xmcd
#
# Track frame offsets:
#	150
#	29303
#	51462
#	67711
#	85368
#	111348
#	134137
#	150159
#	168391
#	201264
#	226021
#	258595
#
# Disc length: 3868 seconds
#
# Revision: 3
# Processed by: cddbd v1.5.2PL0 Copyright (c) Steve Scherf et al.
# Submitted via: EZCDAudioConverter 2.1.7.1
#
DISCID=a00f1a0c
DTITLE=Tom Tom Club - Close To The Bone
DYEAR=2009
DGENRE=
TTITLE0=Pleasure Of Love
TTITLE1=On The Line Again
TTITLE2=This Is A Foxy World
TTITLE3=Bamboo Town
TTITLE4=The Man With The 4-Way Hips
TTITLE5=Measure Up
TTITLE6=Never Took A Penny
TTITLE7=Atsababy! (Life Is Great)
TTITLE8=The Man With The 4-Way Hips [Extended Version]
TTITLE9=Pleasure Of Love [Instrumental]
TTITLE10=The Man With The 4-Way Hips [Dub Version]
TTITLE11=Yella [Mr. Yella Version]
EXTD=
EXTT0=
EXTT1=
EXTT2=
EXTT3=
EXTT4=
EXTT5=
EXTT6=
EXTT7=
EXTT8=
EXTT9=
EXTT10=
EXTT11=
PLAYORDER=
